<svg xmlns="http://www.w3.org/2000/svg" width="25" height="25" viewBox="0 0 25 25"><g class="nc-icon-wrapper" fill="#F7F7F7"><g id="apple" stroke="none" stroke-width="1" fill="none" fill-rule="evenodd"><path d="M18.243 0c1.239 0 2.234.08 3.042.32.757.225 1.309.565 1.771.92.8.617 1.365 1.492 1.61 2.113.492 1.252.497 2.672.497 3.567v11.323c0 .895-.005 2.315-.498 3.567-.244.621-.809 1.496-1.609 2.112a5.27 5.27 0 0 1-1.772.92c-.807.24-1.802.321-3.04.321H6.92c-1.238 0-2.233-.08-3.041-.32a5.272 5.272 0 0 1-1.772-.92c-.8-.617-1.365-1.492-1.61-2.113C.04 20.647.004 19.34 0 18.443V6.92c0-.895.005-2.315.498-3.567.244-.621.809-1.496 1.61-2.112a5.27 5.27 0 0 1 1.77-.92C4.607.104 5.485.017 6.557.002L6.92 0h11.323zm-5.66 13.81c-.783 0-1.446.255-1.824.653a1.157 1.157 0 0 0-.334.725c-.064.588-.028 1.094.041 1.903.066.771.19 1.8.353 2.847.115.746.21 1.148.295 1.436.139.467.658.875 1.469.875.81 0 1.33-.408 1.468-.875.086-.288.18-.69.296-1.436.162-1.047.287-2.076.353-2.847.068-.81.104-1.315.04-1.903a1.157 1.157 0 0 0-.334-.725c-.377-.398-1.04-.654-1.823-.654zm-.024-11.021c-4.816.014-8.763 3.92-8.822 8.737-.049 3.901 2.442 7.238 5.92 8.462.084.03.17-.04.156-.13a50.475 50.475 0 0 1-.128-.906.304.304 0 0 0-.18-.24c-2.748-1.2-4.667-3.957-4.636-7.15.04-4.19 3.462-7.607 7.652-7.64 4.284-.035 7.78 3.44 7.78 7.716 0 3.16-1.91 5.883-4.638 7.075a.304.304 0 0 0-.178.24c-.04.299-.083.603-.128.906a.118.118 0 0 0 .156.129c3.445-1.212 5.92-4.497 5.92-8.35 0-4.888-3.983-8.863-8.874-8.85zm-.205 2.928c-3.136.122-5.652 2.708-5.692 5.846a5.925 5.925 0 0 0 2.591 4.975.116.116 0 0 0 .181-.104 8.483 8.483 0 0 1-.01-1.01.367.367 0 0 0-.115-.288 4.783 4.783 0 0 1-1.514-3.624 4.809 4.809 0 0 1 4.604-4.664 4.8 4.8 0 0 1 4.985 4.792c0 1.377-.583 2.62-1.515 3.495a.367.367 0 0 0-.116.288c.019.33.012.65-.01 1.011a.117.117 0 0 0 .182.104 5.926 5.926 0 0 0 2.592-4.898 5.934 5.934 0 0 0-6.163-5.923zm.23 3.14a2.06 2.06 0 1 0 0 4.118 2.06 2.06 0 0 0 0-4.118z" id="Combined-Shape" fill="#F7F7F7"></path></g></g></svg>