<svg xmlns="http://www.w3.org/2000/svg" width="25" height="25" viewBox="0 0 25 25"><g class="nc-icon-wrapper" fill="#F7F7F7"><g id="overcast" stroke="none" stroke-width="1" fill="none" fill-rule="evenodd"><path d="M12.5 25A12.47 12.47 0 0 1 0 12.5 12.47 12.47 0 0 1 12.5 0 12.47 12.47 0 0 1 25 12.5 12.47 12.47 0 0 1 12.5 25zm0-4.948l.938-.937-.938-3.594-.938 3.594.938.937zM11.302 20l-.469 1.77 1.094-1.093-.625-.677zm2.396 0l-.625.625 1.094 1.094-.47-1.719zm.885 3.23L12.5 21.145l-2.083 2.083c.677.104 1.354.209 2.083.209.73 0 1.406-.053 2.083-.209zM12.5 1.561C6.458 1.563 1.562 6.458 1.562 12.5c0 4.792 3.073 8.854 7.344 10.313l2.344-8.698c-.52-.365-.833-.99-.833-1.667a2.09 2.09 0 0 1 2.083-2.083 2.09 2.09 0 0 1 2.083 2.083c0 .677-.312 1.25-.833 1.667l2.344 8.697A10.884 10.884 0 0 0 23.437 12.5c0-6.042-4.895-10.938-10.937-10.938zm7.135 16.355c-.26.312-.729.416-1.093.156-.365-.26-.417-.73-.157-1.042 0 0 1.407-1.875 1.407-4.531 0-2.656-1.407-4.531-1.407-4.531-.26-.313-.208-.782.157-1.042.364-.26.833-.156 1.093.156.105.104 1.72 2.24 1.72 5.417 0 3.177-1.615 5.313-1.72 5.417zm-3.802-2.032c-.312-.312-.26-.885.052-1.197 0 0 .782-.834.782-2.188s-.782-2.135-.782-2.188c-.312-.312-.312-.833-.052-1.197.313-.365.782-.365 1.094-.053.052.053 1.302 1.355 1.302 3.438s-1.25 3.385-1.302 3.438c-.312.312-.781.26-1.094-.053zm-6.666 0c-.313.313-.782.365-1.094.053-.052-.105-1.302-1.355-1.302-3.438s1.25-3.333 1.302-3.438c.312-.312.833-.312 1.094.053.312.312.26.885-.052 1.197 0 .053-.782.834-.782 2.188s.782 2.188.782 2.188a.882.882 0 0 1 .052 1.197zm-2.709 2.188c-.364.26-.833.156-1.093-.156-.105-.105-1.72-2.24-1.72-5.417 0-3.177 1.615-5.313 1.72-5.417.26-.312.729-.416 1.093-.156.365.26.417.73.157 1.042 0 0-1.407 1.875-1.407 4.531 0 2.656 1.407 4.531 1.407 4.531.26.313.156.782-.157 1.042z" id="overcastCanvas-bezier" fill="#F7F7F7"></path></g></g></svg>