<svg xmlns="http://www.w3.org/2000/svg" width="30" height="30" viewBox="0 0 30 30"><g fill="none" class="nc-icon-wrapper"><path fill-rule="evenodd" clip-rule="evenodd" d="M15 30C23.2843 30 30 23.2843 30 15C30 6.71573 23.2843 0 15 0C6.71573 0 0 6.71573 0 15C0 23.2843 6.71573 30 15 30ZM15 7.84773C18.9443 7.84773 22.1523 11.0557 22.1523 15C22.1523 18.9443 18.9443 22.1523 15 22.1523C11.0557 22.1523 7.84773 18.9443 7.84773 15C7.84773 11.0557 11.0557 7.84773 15 7.84773ZM15 7.15909C10.6687 7.15909 7.15909 10.6687 7.15909 15C7.15909 19.3312 10.6687 22.8409 15 22.8409C19.3312 22.8409 22.8409 19.3312 22.8409 15C22.8409 10.6687 19.3312 7.15909 15 7.15909ZM18.9205 14.8295L12.2727 18.9205V11.0795L18.9205 14.8295Z" fill="currentColor"></path></g></svg>