<svg width="40" height="40" viewBox="0 0 40 40" fill="none" xmlns="http://www.w3.org/2000/svg">
<path d="M29.4135 8.35291C29.3256 8.2859 29.2226 8.24068 29.1132 8.22107C29.0039 8.20145 28.8913 8.20801 28.7851 8.2402C28.6788 8.27238 28.582 8.32925 28.5027 8.40601C28.4233 8.48278 28.3639 8.57719 28.3293 8.68132C27.6239 10.6365 26.4841 12.4117 24.9934 13.877C25.0627 12.4993 24.9973 11.1182 24.7983 9.75276C24.1542 5.42733 22.1309 2.08986 18.9476 0.105718C18.8427 0.0403685 18.7218 0.00396662 18.5977 0.000306198C18.4736 -0.00335423 18.3508 0.0258607 18.2421 0.0849062C18.1333 0.143952 18.0426 0.230666 17.9795 0.336012C17.9163 0.441358 17.8829 0.561479 17.8829 0.683856C17.8829 3.64023 16.2684 6.61234 13.2226 9.2793C10.4274 11.7266 3.93114 18.1895 4.00055 25.3297C4.04914 30.3776 6.79367 37.3768 13.7758 40C14.0458 37.1647 15.3271 35.0738 16.5772 33.0487C17.903 30.901 19.1552 28.8751 19.2718 25.9721C19.2767 25.8395 19.3206 25.7112 19.3982 25.6028C19.4757 25.4944 19.5836 25.4105 19.7086 25.3614C19.8337 25.3123 19.9705 25.3002 20.1024 25.3263C20.2344 25.3525 20.3558 25.416 20.4518 25.5089C24.0452 28.9641 25.9728 33.8047 26.1921 39.909C31.162 38.0138 35.2767 33.7055 35.873 26.6029C36.5698 18.2942 34.3973 12.1543 29.4135 8.35291Z" fill="#FF2578"/>
<path d="M29.4135 8.35291C29.3256 8.2859 29.2226 8.24068 29.1132 8.22107C29.0039 8.20145 28.8913 8.20801 28.7851 8.2402C28.6788 8.27238 28.582 8.32925 28.5027 8.40601C28.4233 8.48278 28.3639 8.57719 28.3293 8.68132C27.6239 10.6365 26.4841 12.4117 24.9934 13.877C25.0627 12.4993 24.9973 11.1182 24.7983 9.75276C24.1542 5.42733 22.1309 2.08986 18.9476 0.105718C18.8427 0.0403685 18.7218 0.00396662 18.5977 0.000306198C18.4736 -0.00335423 18.3508 0.0258607 18.2421 0.0849062C18.1333 0.143952 18.0426 0.230666 17.9795 0.336012C17.9163 0.441358 17.8829 0.561479 17.8829 0.683856C17.8829 3.64023 16.2684 6.61234 13.2226 9.2793C10.4274 11.7266 3.93114 18.1895 4.00055 25.3297C4.04914 30.3776 6.79367 37.3768 13.7758 40C14.0458 37.1647 15.3271 35.0738 16.5772 33.0487C17.903 30.901 19.1552 28.8751 19.2718 25.9721C19.2767 25.8395 19.3206 25.7112 19.3982 25.6028C19.4757 25.4944 19.5836 25.4105 19.7086 25.3614C19.8337 25.3123 19.9705 25.3002 20.1024 25.3263C20.2344 25.3525 20.3558 25.416 20.4518 25.5089C24.0452 28.9641 25.9728 33.8047 26.1921 39.909C31.162 38.0138 35.2767 33.7055 35.873 26.6029C36.5698 18.2942 34.3973 12.1543 29.4135 8.35291Z" fill="url(#paint0_radial_5806_46)"/>
<path d="M29.4135 8.35291C29.3256 8.2859 29.2226 8.24068 29.1132 8.22107C29.0039 8.20145 28.8913 8.20801 28.7851 8.2402C28.6788 8.27238 28.582 8.32925 28.5027 8.40601C28.4233 8.48278 28.3639 8.57719 28.3293 8.68132C27.6239 10.6365 26.4841 12.4117 24.9934 13.877C25.0627 12.4993 24.9973 11.1182 24.7983 9.75276C24.1542 5.42733 22.1309 2.08986 18.9476 0.105718C18.8427 0.0403685 18.7218 0.00396662 18.5977 0.000306198C18.4736 -0.00335423 18.3508 0.0258607 18.2421 0.0849062C18.1333 0.143952 18.0426 0.230666 17.9795 0.336012C17.9163 0.441358 17.8829 0.561479 17.8829 0.683856C17.8829 3.64023 16.2684 6.61234 13.2226 9.2793C10.4274 11.7266 3.93114 18.1895 4.00055 25.3297C4.04914 30.3776 6.79367 37.3768 13.7758 40C14.0458 37.1647 15.3271 35.0738 16.5772 33.0487C17.903 30.901 19.1552 28.8751 19.2718 25.9721C19.2767 25.8395 19.3206 25.7112 19.3982 25.6028C19.4757 25.4944 19.5836 25.4105 19.7086 25.3614C19.8337 25.3123 19.9705 25.3002 20.1024 25.3263C20.2344 25.3525 20.3558 25.416 20.4518 25.5089C24.0452 28.9641 25.9728 33.8047 26.1921 39.909C31.162 38.0138 35.2767 33.7055 35.873 26.6029C36.5698 18.2942 34.3973 12.1543 29.4135 8.35291Z" fill="url(#paint1_radial_5806_46)"/>
<defs>
<radialGradient id="paint0_radial_5806_46" cx="0" cy="0" r="1" gradientUnits="userSpaceOnUse" gradientTransform="translate(20 40.5263) rotate(-90) scale(48.4211 43.7961)">
<stop offset="0.407685" stop-color="#100346" stop-opacity="0"/>
<stop offset="1" stop-color="#100346"/>
</radialGradient>
<radialGradient id="paint1_radial_5806_46" cx="0" cy="0" r="1" gradientUnits="userSpaceOnUse" gradientTransform="translate(20 39.4737) rotate(-88.7787) scale(24.216 8.26008)">
<stop offset="0.553377" stop-color="#FFB325"/>
<stop offset="1" stop-color="#FFB325" stop-opacity="0"/>
</radialGradient>
</defs>
</svg>
